<svg id="Layer_1" data-name="Layer 1" xmlns="http://www.w3.org/2000/svg" viewBox="0 0 284.52 25.6"><defs><style>.cls-1{fill:#504741;}</style></defs><title>GTC_Logo_Single_Line</title><path class="cls-1" d="M176.13,96.19a5.68,5.68,0,0,0-1.86-1.3,6.77,6.77,0,0,0-5.14.06,6,6,0,0,0-2,1.45,6.36,6.36,0,0,0-1.24,2.1,7.54,7.54,0,0,0,0,5,6.36,6.36,0,0,0,1.24,2.1,6,6,0,0,0,2,1.45,6.19,6.19,0,0,0,2.63.54,8.78,8.78,0,0,0,2.28-.29,8.09,8.09,0,0,0,2-.79v-4.45h-3.65v-1.42h5.2v6.82a11.12,11.12,0,0,1-2.84,1.16,11.77,11.77,0,0,1-2.95.4,8.18,8.18,0,0,1-3.16-.6,7.59,7.59,0,0,1-4.2-4.21,8.86,8.86,0,0,1,0-6.43,7.58,7.58,0,0,1,4.2-4.21,8.17,8.17,0,0,1,3.16-.6,8.87,8.87,0,0,1,3.16.51,6.69,6.69,0,0,1,2.36,1.54Z" transform="translate(-108.12 -88.25)"/><path class="cls-1" d="M182.35,101.72q0-.67,0-1.36t-0.05-1.79h1.4v1.88h0a3.14,3.14,0,0,1,.43-0.79,3.38,3.38,0,0,1,.68-0.68,3.35,3.35,0,0,1,.93-0.49,3.65,3.65,0,0,1,1.2-.18,3.86,3.86,0,0,1,1.06.13l-0.28,1.4a2.4,2.4,0,0,0-.82-0.11,2.93,2.93,0,0,0-1.4.31,3.11,3.11,0,0,0-1,.8,3.31,3.31,0,0,0-.57,1,3.46,3.46,0,0,0-.18,1.08v5.7h-1.42v-7Z" transform="translate(-108.12 -88.25)"/><path class="cls-1" d="M196.92,102.48v-0.26a2.3,2.3,0,0,0-2.59-2.61,4.46,4.46,0,0,0-3.09,1.19l-0.86-1a5.7,5.7,0,0,1,4.27-1.47,4.64,4.64,0,0,1,1.41.22,3.2,3.2,0,0,1,1.18.66,3.27,3.27,0,0,1,.8,1.11,3.86,3.86,0,0,1,.3,1.6v4.51q0,0.58.05,1.22t0.12,1h-1.38q-0.06-.37-0.1-0.8t0-.84h0a3.86,3.86,0,0,1-1.48,1.46,4.48,4.48,0,0,1-2.08.44,4.58,4.58,0,0,1-1.29-.18,3.3,3.3,0,0,1-1.11-.56,2.85,2.85,0,0,1-.78-0.93,2.71,2.71,0,0,1-.29-1.28,2.77,2.77,0,0,1,.64-1.93,3.9,3.9,0,0,1,1.6-1,7.9,7.9,0,0,1,2.05-.43q1.09-.09,2-0.09h0.71Zm-0.73,1.17q-0.54,0-1.35.05a7.8,7.8,0,0,0-1.55.26,3.43,3.43,0,0,0-1.27.64,1.45,1.45,0,0,0-.53,1.19,1.68,1.68,0,0,0,.21.85,1.7,1.7,0,0,0,.55.58,2.34,2.34,0,0,0,.77.32,3.78,3.78,0,0,0,.85.1,3.24,3.24,0,0,0,1.35-.26,2.74,2.74,0,0,0,1.53-1.74,4.26,4.26,0,0,0,.18-1.26v-0.73h-0.73Z" transform="translate(-108.12 -88.25)"/><path class="cls-1" d="M204.09,98.57q0,0.41.05,0.81t0,0.81h0a3.31,3.31,0,0,1,.6-0.76,4,4,0,0,1,.82-0.59,4.49,4.49,0,0,1,1-.39,3.74,3.74,0,0,1,1-.14,3.69,3.69,0,0,1,2.87,1,4.21,4.21,0,0,1,.93,2.92v6.41H210v-5.59a4.74,4.74,0,0,0-.58-2.58,2.38,2.38,0,0,0-2.16-.9,5.5,5.5,0,0,0-.6.09,2.63,2.63,0,0,0-1,.48,3.43,3.43,0,0,0-1,1.17,4.48,4.48,0,0,0-.43,2.16v5.18h-1.42v-7.88q0-.41,0-1t-0.08-1.19h1.47Z" transform="translate(-108.12 -88.25)"/><path class="cls-1" d="M216.69,108.67v-8.8h-2.42v-1.3h2.42V95.72h1.42v2.85h2.63v1.3h-2.63v8.81h-1.42Z" transform="translate(-108.12 -88.25)"/><path class="cls-1" d="M366.51,108.67v-8.8h-2.42v-1.3h2.42V95.72h1.42v2.85h2.63v1.3h-2.63v8.81h-1.42Z" transform="translate(-108.12 -88.25)"/><path class="cls-1" d="M236.55,108.67H235V94.81h-5.12V93.39h11.78v1.42h-5.12v13.86Z" transform="translate(-108.12 -88.25)"/><path class="cls-1" d="M242.76,101.72q0-.67,0-1.36t-0.05-1.79h1.4v1.88h0a3.14,3.14,0,0,1,.43-0.79,3.38,3.38,0,0,1,.68-0.68,3.35,3.35,0,0,1,.93-0.49,3.65,3.65,0,0,1,1.2-.18,3.86,3.86,0,0,1,1.06.13l-0.28,1.4a2.4,2.4,0,0,0-.82-0.11,2.93,2.93,0,0,0-1.4.31,3.11,3.11,0,0,0-1,.8,3.31,3.31,0,0,0-.57,1,3.46,3.46,0,0,0-.18,1.08v5.7h-1.42v-7Z" transform="translate(-108.12 -88.25)"/><path class="cls-1" d="M257.33,102.48v-0.26a2.3,2.3,0,0,0-2.59-2.61,4.46,4.46,0,0,0-3.09,1.19l-0.86-1a5.7,5.7,0,0,1,4.27-1.47,4.64,4.64,0,0,1,1.41.22,3.2,3.2,0,0,1,1.18.66,3.27,3.27,0,0,1,.8,1.11,3.86,3.86,0,0,1,.3,1.6v4.51q0,0.58.05,1.22t0.12,1h-1.38q-0.06-.37-0.1-0.8t0-.84h0a3.86,3.86,0,0,1-1.48,1.46,4.48,4.48,0,0,1-2.08.44,4.58,4.58,0,0,1-1.29-.18,3.3,3.3,0,0,1-1.11-.56,2.85,2.85,0,0,1-.78-0.93,2.71,2.71,0,0,1-.29-1.28A2.77,2.77,0,0,1,251,104a3.9,3.9,0,0,1,1.6-1,7.9,7.9,0,0,1,2.05-.43q1.09-.09,2-0.09h0.71Zm-0.73,1.17q-0.54,0-1.35.05a7.8,7.8,0,0,0-1.55.26,3.43,3.43,0,0,0-1.27.64,1.45,1.45,0,0,0-.53,1.19,1.68,1.68,0,0,0,.21.85,1.7,1.7,0,0,0,.55.58,2.34,2.34,0,0,0,.77.32,3.78,3.78,0,0,0,.85.1,3.24,3.24,0,0,0,1.35-.26,2.74,2.74,0,0,0,1.53-1.74,4.26,4.26,0,0,0,.18-1.26v-0.73H256.6Z" transform="translate(-108.12 -88.25)"/><path class="cls-1" d="M265.21,94.68a1,1,0,0,1-.32.74,1,1,0,0,1-1.42,0,1,1,0,0,1,0-1.49,1,1,0,0,1,1.42,0A1,1,0,0,1,265.21,94.68Zm-0.32,14h-1.42V98.57h1.42v10.1Z" transform="translate(-108.12 -88.25)"/><path class="cls-1" d="M270.76,98.57q0,0.41.05,0.81t0,0.81h0a3.31,3.31,0,0,1,.6-0.76,4,4,0,0,1,.82-0.59,4.49,4.49,0,0,1,1-.39,3.74,3.74,0,0,1,1-.14,3.69,3.69,0,0,1,2.87,1,4.21,4.21,0,0,1,.93,2.92v6.41h-1.42v-5.59a4.74,4.74,0,0,0-.58-2.58,2.38,2.38,0,0,0-2.16-.9,5.5,5.5,0,0,0-.6.09,2.63,2.63,0,0,0-1,.48,3.43,3.43,0,0,0-1,1.17,4.48,4.48,0,0,0-.43,2.16v5.18H269.4v-7.88q0-.41,0-1t-0.08-1.19h1.47Z" transform="translate(-108.12 -88.25)"/><path class="cls-1" d="M284.55,94.68a1,1,0,0,1-.32.74,1,1,0,0,1-1.42,0,1,1,0,0,1,0-1.49,1,1,0,0,1,1.42,0A1,1,0,0,1,284.55,94.68Zm-0.32,14H282.8V98.57h1.42v10.1Z" transform="translate(-108.12 -88.25)"/><path class="cls-1" d="M290.1,98.57q0,0.41.05,0.81t0,0.81h0a3.31,3.31,0,0,1,.6-0.76,4,4,0,0,1,.82-0.59,4.49,4.49,0,0,1,1-.39,3.74,3.74,0,0,1,1-.14,3.69,3.69,0,0,1,2.87,1,4.21,4.21,0,0,1,.93,2.92v6.41H296v-5.59a4.74,4.74,0,0,0-.58-2.58,2.38,2.38,0,0,0-2.16-.9,5.5,5.5,0,0,0-.6.09,2.63,2.63,0,0,0-1,.48,3.43,3.43,0,0,0-1,1.17,4.48,4.48,0,0,0-.43,2.16v5.18h-1.42v-7.88q0-.41,0-1t-0.08-1.19h1.47Z" transform="translate(-108.12 -88.25)"/><path class="cls-1" d="M302.6,110.7a4.55,4.55,0,0,0,1.63,1.35,4.89,4.89,0,0,0,2.23.51,4.8,4.8,0,0,0,1.83-.31,3.18,3.18,0,0,0,1.22-.85,3.29,3.29,0,0,0,.67-1.26,5.64,5.64,0,0,0,.21-1.54v-1.81h0a3.89,3.89,0,0,1-1.68,1.47,5.19,5.19,0,0,1-2.09.43,5.44,5.44,0,0,1-2.06-.39,5.24,5.24,0,0,1-1.67-1.07,4.91,4.91,0,0,1-1.12-1.63,5.11,5.11,0,0,1-.41-2.05,5.36,5.36,0,0,1,.39-2.05,5.27,5.27,0,0,1,1.07-1.66,4.81,4.81,0,0,1,1.62-1.11,5.21,5.21,0,0,1,2.06-.4,5.76,5.76,0,0,1,1,.09,4.56,4.56,0,0,1,1,.3,4.67,4.67,0,0,1,1.93,1.55h0V98.57h1.42v10a8.13,8.13,0,0,1-.21,1.75,4.32,4.32,0,0,1-.8,1.71,4.54,4.54,0,0,1-1.65,1.29,6.3,6.3,0,0,1-2.76.52,6.94,6.94,0,0,1-2.7-.5,6.28,6.28,0,0,1-2.16-1.53Zm0.26-7.21a3.87,3.87,0,0,0,.29,1.5,3.93,3.93,0,0,0,.8,1.23,3.87,3.87,0,0,0,1.19.84,3.49,3.49,0,0,0,1.48.31,4,4,0,0,0,2.72-1.07,3.44,3.44,0,0,0,.83-1.22,3.92,3.92,0,0,0,.27-1.6,4.31,4.31,0,0,0-.26-1.5,3.61,3.61,0,0,0-.76-1.23,3.65,3.65,0,0,0-1.21-.84,3.94,3.94,0,0,0-1.6-.31,3.5,3.5,0,0,0-1.48.31,3.87,3.87,0,0,0-1.19.84,3.94,3.94,0,0,0-.8,1.23A3.87,3.87,0,0,0,302.86,103.49Z" transform="translate(-108.12 -88.25)"/><path class="cls-1" d="M336.27,106.25a5.94,5.94,0,0,1-1,1.1,6.08,6.08,0,0,1-1.31.9,7.46,7.46,0,0,1-1.59.59,7.34,7.34,0,0,1-1.8.22,8.18,8.18,0,0,1-3.16-.6,7.59,7.59,0,0,1-4.2-4.21,8.86,8.86,0,0,1,0-6.43,7.58,7.58,0,0,1,4.2-4.21,8.17,8.17,0,0,1,3.16-.6,7.72,7.72,0,0,1,2.85.56,5.75,5.75,0,0,1,2.44,1.86l-1.36,1a3.72,3.72,0,0,0-.65-0.73,4.72,4.72,0,0,0-.94-0.65,5.85,5.85,0,0,0-1.13-.45,4.38,4.38,0,0,0-1.21-.17A6.2,6.2,0,0,0,328,95a6,6,0,0,0-2,1.45,6.36,6.36,0,0,0-1.24,2.1,7.54,7.54,0,0,0,0,5,6.36,6.36,0,0,0,1.24,2.1,6,6,0,0,0,2,1.45,6.19,6.19,0,0,0,2.63.54,6.66,6.66,0,0,0,1.2-.11,5,5,0,0,0,1.17-.37,4.4,4.4,0,0,0,1.08-.7,5.23,5.23,0,0,0,.94-1.11Z" transform="translate(-108.12 -88.25)"/><path class="cls-1" d="M340.44,104a4.33,4.33,0,0,0,.37,1.42,3.72,3.72,0,0,0,1.94,1.92,3.49,3.49,0,0,0,1.4.28,3.59,3.59,0,0,0,2-.53,4,4,0,0,0,1.26-1.22l1.1,0.91a5.47,5.47,0,0,1-2,1.64,5.58,5.58,0,0,1-2.34.5,5.37,5.37,0,0,1-2.08-.4,4.87,4.87,0,0,1-1.65-1.11,5.26,5.26,0,0,1-1.09-1.68,5.5,5.5,0,0,1-.4-2.12,5.64,5.64,0,0,1,.39-2.12,5.11,5.11,0,0,1,1.08-1.68A5,5,0,0,1,342,98.71a5,5,0,0,1,2-.4,4.92,4.92,0,0,1,2.05.41,4.55,4.55,0,0,1,1.52,1.09,4.67,4.67,0,0,1,.94,1.6,5.83,5.83,0,0,1,.32,2V104h-8.42Zm6.86-1.17a3.23,3.23,0,0,0-.86-2.34,3.2,3.2,0,0,0-2.42-.9,3.45,3.45,0,0,0-1.34.27,3.78,3.78,0,0,0-1.13.72,3.62,3.62,0,0,0-.78,1,2.67,2.67,0,0,0-.29,1.21h6.82Z" transform="translate(-108.12 -88.25)"/><path class="cls-1" d="M353.88,98.57q0,0.41.05,0.81t0,0.81h0a3.31,3.31,0,0,1,.6-0.76,4,4,0,0,1,.82-0.59,4.49,4.49,0,0,1,1-.39,3.74,3.74,0,0,1,1-.14,3.69,3.69,0,0,1,2.87,1,4.21,4.21,0,0,1,.93,2.92v6.41h-1.42v-5.59a4.74,4.74,0,0,0-.58-2.58,2.38,2.38,0,0,0-2.16-.9,5.5,5.5,0,0,0-.6.09,2.63,2.63,0,0,0-1,.48,3.43,3.43,0,0,0-1,1.17,4.48,4.48,0,0,0-.43,2.16v5.18h-1.42v-7.88q0-.41,0-1t-0.08-1.19h1.47Z" transform="translate(-108.12 -88.25)"/><path class="cls-1" d="M374.75,104a4.33,4.33,0,0,0,.37,1.42,3.72,3.72,0,0,0,1.94,1.92,3.49,3.49,0,0,0,1.4.28,3.59,3.59,0,0,0,2-.53,4,4,0,0,0,1.26-1.22l1.1,0.91a5.47,5.47,0,0,1-2,1.64,5.58,5.58,0,0,1-2.34.5,5.37,5.37,0,0,1-2.08-.4,4.87,4.87,0,0,1-1.65-1.11,5.26,5.26,0,0,1-1.09-1.68,5.5,5.5,0,0,1-.4-2.12,5.64,5.64,0,0,1,.39-2.12,5.11,5.11,0,0,1,1.08-1.68,5,5,0,0,1,1.62-1.11,5,5,0,0,1,2-.4,4.92,4.92,0,0,1,2.05.41,4.55,4.55,0,0,1,1.52,1.09,4.67,4.67,0,0,1,.94,1.6,5.83,5.83,0,0,1,.32,2V104h-8.42Zm6.86-1.17a3.23,3.23,0,0,0-.86-2.34,3.2,3.2,0,0,0-2.42-.9,3.45,3.45,0,0,0-1.34.27,3.78,3.78,0,0,0-1.13.72,3.62,3.62,0,0,0-.78,1,2.67,2.67,0,0,0-.29,1.21h6.82Z" transform="translate(-108.12 -88.25)"/><path class="cls-1" d="M387,101.72q0-.67,0-1.36t-0.05-1.79h1.4v1.88h0a3.14,3.14,0,0,1,.43-0.79,3.38,3.38,0,0,1,.68-0.68,3.35,3.35,0,0,1,.93-0.49,3.65,3.65,0,0,1,1.2-.18,3.86,3.86,0,0,1,1.06.13l-0.28,1.4a2.4,2.4,0,0,0-.82-0.11,2.93,2.93,0,0,0-1.4.31,3.11,3.11,0,0,0-1,.8,3.31,3.31,0,0,0-.57,1,3.46,3.46,0,0,0-.18,1.08v5.7H387v-7Z" transform="translate(-108.12 -88.25)"/><path class="cls-1" d="M146.67,90.88a7.45,7.45,0,0,0-5-2.61l-9.37,0H114.87a7.48,7.48,0,0,0-4.09,13.17,7.57,7.57,0,0,0,4.85,1.74c0.24,0,.48,0,0.71,0a7.37,7.37,0,0,0,5-2.61l0.38-.47V95.53h-3.4v3.25a4,4,0,0,1-2.3,1,4.16,4.16,0,0,1-3.05-.93,4,4,0,0,1-1.43-2.75,4.09,4.09,0,0,1,3.59-4.41h26.3A4.09,4.09,0,0,1,145,96.07a4,4,0,0,1-1.43,2.75,4.16,4.16,0,0,1-3.06.93,4,4,0,0,1-2.3-1V95.52h-3.4v4.53l0.38,0.47a7.37,7.37,0,0,0,5,2.61,7.59,7.59,0,0,0,5.56-1.71A7.48,7.48,0,0,0,146.67,90.88Z" transform="translate(-108.12 -88.25)"/><rect class="cls-1" x="18.48" y="7.29" width="3.4" height="16.36"/><path class="cls-1" d="M118.42,111.89h3.39v-7.13a11,11,0,0,1-3.39,1.51v5.62Z" transform="translate(-108.12 -88.25)"/><path class="cls-1" d="M134.86,111.89h3.39v-5.62a11,11,0,0,1-3.39-1.51v7.13Z" transform="translate(-108.12 -88.25)"/></svg>